<?xml version="1.0" encoding="UTF-8" standalone="no"?> <!-- Created with Vectornator for iOS (http://vectornator.io/) --><!DOCTYPE svg PUBLIC "-//W3C//DTD SVG 1.1//EN" "http://www.w3.org/Graphics/SVG/1.1/DTD/svg11.dtd">
<svg height="100%" style="fill-rule:evenodd;clip-rule:evenodd;stroke-linecap:round;stroke-linejoin:round;" xmlns:xlink="http://www.w3.org/1999/xlink" xmlns="http://www.w3.org/2000/svg" xml:space="preserve" width="100%" xmlns:vectornator="http://vectornator.io" version="1.1" viewBox="0 0 201.25 24.75">
<metadata>
<vectornator:setting key="DynamicGuides" value="1"/>
<vectornator:setting key="Units" value="Points"/>
<vectornator:setting key="GuidesVisible" value="1"/>
<vectornator:setting key="RulersVisible" value="1"/>
<vectornator:setting key="SnapToGuides" value="1"/>
<vectornator:setting key="GridSpacing" value="36"/>
</metadata>
<defs>
<linearGradient y1="12.3412" id="LinearGradient" x1="6.5" y2="12.3412" x2="76.5" gradientUnits="userSpaceOnUse" gradientTransform="matrix(1 0 0 1 0 0)">
<stop stop-opacity="0" stop-color="#0c88cc" offset="0"/>
<stop stop-color="#0c88cc" offset="0.506265"/>
</linearGradient>
<linearGradient y1="12.3412" id="LinearGradient_2" x1="122.75" y2="12.3412" x2="192.75" gradientUnits="userSpaceOnUse" gradientTransform="matrix(1 0 0 1 0 0)">
<stop stop-color="#00ada9" offset="0.502805"/>
<stop stop-opacity="0" stop-color="#00ada9" offset="1"/>
</linearGradient>
</defs>
<g id="Untitled" vectornator:layerName="Untitled">
<path d="M92.6069+20.2213C92.7909+20.084+93.8894+19.3068+94.8514+17.7479C92.6993+17.887+90.8667+17.703+89.3096+17.2902C88.8976+18.3438+88.4848+19.2601+88.1195+19.9925C90.0419+20.4044+91.7372+20.3129+92.6069+20.2213M85.3715+17.9776C85.5545+18.5278+85.6919+18.9388+85.8292+19.2601C86.5166+19.5357+87.2032+19.7645+87.8449+19.9009C87.9813+19.3517+88.2102+18.5727+88.4848+17.6106C87.6151+17.9776+86.5615+18.1598+85.3715+17.9776M96.1339+13.2596C94.8057+13.3521+92.9282+13.3521+90.8667+12.8028C90.6378+13.4894+90.4547+14.1302+90.2259+14.7719C91.5084+14.7719+92.378+14.5888+92.378+14.5888C92.378+14.5888+91.4168+15.961+89.7682+16.9698C91.7821+17.4284+93.6147+17.5648+94.9439+17.5648C95.538+16.5121+96.0415+15.0914+96.1339+13.2596M85.6919+10.0539C86.837+10.7413+88.3484+11.5652+90.2716+12.1621C90.6845+10.9244+91.1871+9.59617+91.6448+8.35947C90.5454+7.99328+89.3553+7.44403+88.2568+6.71081C87.3405+7.53559+86.3784+8.63409+85.6919+10.0539M85.1417+11.4746C84.9137+12.2518+84.7755+13.0317+84.7755+13.764C86.3326+14.4964+88.0271+14.7252+89.4011+14.7719C89.63+14.0844+89.8597+13.3521+90.1343+12.5731C88.6688+12.1154+87.1108+11.3821+85.6003+10.2379C85.4172+10.6507+85.279+11.0617+85.1417+11.4746M90.3174+3.4135C85.9216+3.4135+82.2572+6.48195+81.3409+10.6031C82.1199+11.9323+83.1269+12.8477+84.2721+13.4894C84.2721+12.7562+84.3636+11.9781+84.5925+11.1533C84.7298+10.6956+84.8671+10.2379+85.0502+9.82503C84.5467+9.41308+84.0432+8.95539+83.5388+8.45191C83.5388+8.45191+84.089+8.95539+85.1417+9.64194C85.8292+8.26881+86.8819+7.2143+87.8898+6.43619C87.3863+6.07+86.837+5.65717+86.3784+5.15369C86.3784+5.15369+87.0201+5.6114+88.1653+6.20733C89.9055+4.97062+91.5541+4.5129+91.5541+4.5129C91.5541+4.5129+90.0886+5.06306+88.5315+6.39042C89.4011+6.84811+90.5454+7.39827+91.8287+7.85598C92.2874+6.71081+92.7909+5.56654+93.2943+4.60443C93.2943+4.60443+92.9282+6.02423+92.3322+8.03995C93.3859+8.40524+94.4853+8.72653+95.6753+8.95539C95.3558+7.76355+94.8981+6.52772+94.2564+5.15369C94.2564+5.15369+95.2634+6.71081+95.9966+9.04692C96.6832+9.13846+97.3697+9.23089+98.0572+9.27578C98.0572+9.27578+97.2782+9.32155+96.0415+9.23089C96.3637+10.3752+96.6374+11.6577+96.6832+13.0317C97.1866+13.0317+97.691+12.985+98.2412+12.8944C98.2412+12.8944+97.6444+13.0766+96.6832+13.169L96.6832+13.6267C96.6374+15.2305+96.0873+16.5578+95.4465+17.5648C96.5001+17.519+97.0951+17.4284+97.0951+17.4284C96.5001+17.519+95.9042+17.6106+95.3558+17.6572C94.2564+19.2601+92.8357+20.0373+92.6069+20.1755C92.8824+20.1298+93.0646+20.1298+93.157+20.084C91.1413+20.4959+89.4011+20.4044+88.0271+20.084C87.8898+20.3129+87.7524+20.5417+87.6609+20.6799C87.6609+20.6799+87.7067+20.4502+87.8449+20.0373C87.1108+19.8552+86.5166+19.6254+85.9665+19.3957C86.058+19.6254+86.1496+19.7645+86.1496+19.7645C86.1496+19.7645+86.058+19.6254+85.875+19.3517C84.4094+18.6642+83.6761+17.887+83.6761+17.887C84.3636+18.3887+85.0502+18.8015+85.7376+19.1219C85.5545+18.8015+85.3248+18.3887+85.0968+17.8403C84.1347+17.6106+83.0811+17.152+81.9826+16.2832C81.9359+16.2374+81.9359+16.2374+81.8902+16.1899C83.31+19.4432+86.5166+21.686+90.3174+21.686C95.4016+21.686+99.477+17.5648+99.477+12.5273C99.477+7.53559+95.3558+3.4135+90.3174+3.4135M95.722+9.23089C94.7141+9.13846+93.5232+8.95539+92.1949+8.54253C91.8745+9.68771+91.4617+11.016+91.0049+12.3909C92.5162+12.8028+94.2564+13.0766+96.1339+13.0766C96.1797+11.9323+96.0415+10.6507+95.722+9.23089" opacity="1" fill="#0c88cc"/>
<path d="M6.5+12.9324L76.5+12.9324L76.5+11.75L6.5+11.75L6.5+12.9324Z" opacity="1" fill="url(#LinearGradient)"/>
<path d="M122.75+12.9324L192.75+12.9324L192.75+11.75L122.75+11.75L122.75+12.9324Z" opacity="1" fill="url(#LinearGradient_2)"/>
</g>
<g id="レイヤー 1" vectornator:layerName="レイヤー 1">
<path d="M100.75+3.686L100.75+21.686L118.75+21.686L118.75+3.686L100.75+3.686ZM117.316+20.252L102.18+20.252L102.18+5.11998L117.316+5.11998L117.316+20.252Z" opacity="1" fill="#231815"/>
<path d="M104.634+6.95873L106.662+6.95873L106.662+18.3487L104.634+18.3487L104.634+6.95873ZM115.068+18.4133L111.02+12.6731L108.704+12.6731L112.747+18.4133L115.068+18.4133Z" opacity="1" fill="#231815"/>
<path d="M112.739+7.02332L108.704+12.6731L111.02+12.6731L115.055+7.02332L112.739+7.02332Z" opacity="1" fill="#00ada9"/>
</g>
</svg>
