<?xml version="1.0" encoding="utf-8"?>
<!-- Generator: Adobe Illustrator 12.0.0, SVG Export Plug-In . SVG Version: 6.00 Build 51448)  -->
<!DOCTYPE svg PUBLIC "-//W3C//DTD SVG 1.1//EN" "http://www.w3.org/Graphics/SVG/1.1/DTD/svg11.dtd" [
	<!ENTITY ns_svg "http://www.w3.org/2000/svg">
	<!ENTITY ns_xlink "http://www.w3.org/1999/xlink">
]>
<svg  version="1.1"
	 id="レイヤー_1" xmlns:dc="http://purl.org/dc/elements/1.1/" xmlns:cc="http://creativecommons.org/ns#" xmlns:rdf="http://www.w3.org/1999/02/22-rdf-syntax-ns#"
	 xmlns="&ns_svg;" xmlns:xlink="&ns_xlink;" width="322" height="48" viewBox="23.5 -143.9 322 48"
	 overflow="visible" enable-background="new 23.5 -143.9 322 48" xml:space="preserve">
<g>
	<path fill="#FFFFFF" d="M81.678-132.785c0.129,0.15,0.193,0.34,0.193,0.568c0,0.115-0.022,0.25-0.064,0.408l-4.381,14.86
		c-0.071,0.228-0.183,0.404-0.333,0.526c-0.15,0.12-0.326,0.182-0.525,0.182c-0.201,0-0.376-0.063-0.527-0.193
		c-0.15-0.128-0.254-0.293-0.312-0.495l-3.479-12.691l-3.458,12.67c-0.071,0.215-0.182,0.387-0.333,0.515
		c-0.149,0.129-0.326,0.193-0.526,0.193s-0.375-0.063-0.525-0.193c-0.15-0.128-0.255-0.293-0.312-0.495l-4.402-14.881
		c-0.043-0.158-0.064-0.286-0.064-0.386c0-0.244,0.072-0.44,0.214-0.59c0.144-0.15,0.33-0.226,0.559-0.226
		c0.401,0,0.673,0.214,0.816,0.645l3.715,12.948l3.522-12.584c0.043-0.158,0.14-0.286,0.29-0.386
		c0.15-0.101,0.318-0.151,0.505-0.151c0.186,0,0.351,0.05,0.494,0.151c0.143,0.1,0.243,0.236,0.301,0.407l3.542,12.583l3.736-13.055
		c0.115-0.372,0.386-0.559,0.816-0.559C81.37-133.01,81.549-132.935,81.678-132.785z"/>
	<path fill="#FFFFFF" d="M92.925-127.319c0.902,0.516,1.614,1.231,2.137,2.147c0.522,0.917,0.784,1.938,0.784,3.07
		s-0.258,2.151-0.773,3.061c-0.515,0.909-1.228,1.621-2.137,2.137c-0.909,0.515-1.929,0.773-3.06,0.773s-2.151-0.259-3.06-0.773
		c-0.91-0.516-1.622-1.228-2.137-2.137c-0.516-0.91-0.773-1.93-0.773-3.061s0.257-2.152,0.773-3.07
		c0.515-0.916,1.227-1.631,2.137-2.147c0.909-0.516,1.929-0.772,3.06-0.772S92.023-127.835,92.925-127.319z M87.653-126.01
		c-0.665,0.386-1.188,0.919-1.567,1.6c-0.379,0.68-0.569,1.449-0.569,2.307c0,0.846,0.19,1.607,0.569,2.288
		c0.379,0.68,0.902,1.214,1.567,1.601c0.667,0.385,1.407,0.578,2.223,0.578c0.831,0,1.575-0.193,2.233-0.578
		c0.658-0.386,1.173-0.921,1.546-1.601c0.372-0.681,0.558-1.442,0.558-2.288c0-0.858-0.186-1.627-0.558-2.307
		c-0.373-0.681-0.888-1.214-1.546-1.6c-0.659-0.386-1.403-0.58-2.233-0.58C89.061-126.589,88.32-126.396,87.653-126.01z"/>
	<path fill="#FFFFFF" d="M106.845-127.878c0.352,0.157,0.525,0.379,0.525,0.666c0,0.085-0.006,0.15-0.021,0.193
		c-0.056,0.2-0.146,0.336-0.267,0.409c-0.124,0.071-0.291,0.106-0.505,0.106c-0.131,0-0.352-0.013-0.667-0.042
		c-0.114-0.014-0.286-0.022-0.515-0.022c-1.075,0-1.952,0.287-2.632,0.859c-0.68,0.574-1.02,1.318-1.02,2.233v6.421
		c0,0.259-0.072,0.458-0.215,0.602c-0.143,0.142-0.343,0.213-0.6,0.213c-0.259,0-0.459-0.071-0.603-0.213
		c-0.143-0.144-0.215-0.343-0.215-0.602v-10.114c0-0.257,0.072-0.458,0.215-0.602c0.144-0.143,0.344-0.214,0.603-0.214
		c0.256,0,0.457,0.071,0.6,0.214c0.144,0.144,0.215,0.345,0.215,0.602v0.945c0.415-0.602,0.945-1.067,1.589-1.395
		c0.644-0.331,1.339-0.495,2.083-0.495C106.019-128.114,106.494-128.036,106.845-127.878z"/>
	<path fill="#FFFFFF" d="M110.939-132.785c0.156-0.15,0.352-0.226,0.58-0.226c0.243,0,0.44,0.076,0.59,0.226
		c0.151,0.15,0.226,0.347,0.226,0.59v12.241c0,0.614,0.126,1.116,0.375,1.501c0.251,0.388,0.57,0.581,0.957,0.581h0.536
		c0.214,0,0.386,0.076,0.516,0.226c0.129,0.15,0.193,0.348,0.193,0.591s-0.091,0.44-0.268,0.591
		c-0.18,0.149-0.412,0.225-0.698,0.225h-0.279c-0.874,0-1.586-0.348-2.137-1.041s-0.828-1.585-0.828-2.672v-12.241
		C110.702-132.438,110.781-132.634,110.939-132.785z"/>
	<path fill="#FFFFFF" d="M129.11-127.17v5.047c0,1.116-0.264,2.132-0.784,3.049c-0.521,0.917-1.239,1.635-2.146,2.158
		c-0.91,0.522-1.924,0.784-3.038,0.784c-1.118,0-2.131-0.262-3.04-0.784c-0.908-0.523-1.625-1.242-2.147-2.158
		c-0.521-0.917-0.783-1.934-0.783-3.049c0-1.117,0.253-2.129,0.763-3.039c0.507-0.909,1.202-1.625,2.083-2.147
		c0.88-0.522,1.864-0.783,2.953-0.783c0.931,0,1.781,0.196,2.555,0.589c0.771,0.394,1.409,0.934,1.911,1.621v-6.292
		c0-0.243,0.078-0.444,0.236-0.601c0.157-0.157,0.356-0.236,0.6-0.236c0.246,0,0.442,0.079,0.591,0.236
		c0.151,0.157,0.228,0.358,0.228,0.601v4.811C129.103-127.319,129.11-127.255,129.11-127.17z M125.353-118.225
		c0.659-0.394,1.179-0.93,1.558-1.611c0.378-0.68,0.568-1.443,0.568-2.287c0-0.244-0.009-0.423-0.021-0.537
		c-0.016-0.029-0.021-0.064-0.021-0.108c-0.143-1.117-0.613-2.032-1.407-2.749c-0.794-0.715-1.757-1.073-2.887-1.073
		c-0.816,0-1.557,0.194-2.223,0.58c-0.667,0.386-1.188,0.919-1.569,1.6c-0.379,0.68-0.566,1.443-0.566,2.287
		c0,0.844,0.188,1.606,0.566,2.287c0.381,0.681,0.902,1.217,1.569,1.611c0.666,0.393,1.406,0.589,2.223,0.589
		C123.957-117.636,124.691-117.832,125.353-118.225z"/>
	<path fill="#FFFFFF" d="M134.709-130.884c0-0.244,0.074-0.443,0.225-0.602c0.15-0.157,0.346-0.236,0.59-0.236
		c0.243,0,0.442,0.079,0.603,0.236c0.156,0.158,0.235,0.357,0.235,0.602v3.329h2.428c0.228,0,0.41,0.068,0.547,0.203
		c0.136,0.137,0.203,0.311,0.203,0.526c0,0.201-0.067,0.37-0.203,0.505c-0.137,0.136-0.319,0.203-0.547,0.203h-2.428v5.735
		c0,0.729,0.215,1.326,0.644,1.791c0.431,0.465,0.98,0.699,1.655,0.699h0.579c0.229,0,0.415,0.078,0.559,0.236
		c0.142,0.158,0.215,0.358,0.215,0.601c0,0.229-0.087,0.422-0.258,0.58c-0.173,0.158-0.388,0.236-0.645,0.236h-0.45
		c-0.759,0-1.44-0.182-2.042-0.547c-0.6-0.365-1.07-0.859-1.406-1.481c-0.335-0.624-0.503-1.329-0.503-2.114V-130.884z"/>
	<path fill="#FFFFFF" d="M151.47-127.309c0.906,0.522,1.622,1.242,2.145,2.158c0.522,0.917,0.785,1.933,0.785,3.049v5.047
		c0,0.229-0.08,0.422-0.236,0.58c-0.158,0.158-0.357,0.236-0.602,0.236c-0.243,0-0.443-0.076-0.6-0.225
		c-0.159-0.15-0.238-0.348-0.238-0.591v-1.289c-0.5,0.688-1.138,1.227-1.911,1.622c-0.772,0.393-1.626,0.591-2.556,0.591
		c-1.086,0-2.071-0.262-2.952-0.784c-0.88-0.523-1.575-1.239-2.082-2.147c-0.51-0.91-0.762-1.923-0.762-3.041
		c0-1.116,0.26-2.132,0.782-3.049c0.523-0.916,1.238-1.635,2.148-2.158c0.909-0.522,1.922-0.783,3.038-0.783
		C149.547-128.092,150.56-127.832,151.47-127.309z M150.641-118.214c0.658-0.386,1.178-0.921,1.557-1.601
		c0.379-0.681,0.57-1.442,0.57-2.288c0-0.843-0.191-1.606-0.57-2.286s-0.898-1.217-1.557-1.611c-0.659-0.393-1.395-0.59-2.211-0.59
		c-0.815,0-1.558,0.197-2.223,0.59c-0.665,0.395-1.188,0.932-1.567,1.611c-0.379,0.68-0.569,1.442-0.569,2.286
		c0,0.846,0.19,1.607,0.569,2.288c0.38,0.68,0.902,1.214,1.567,1.601c0.665,0.385,1.407,0.578,2.223,0.578
		C149.246-117.636,149.981-117.829,150.641-118.214z"/>
	<path fill="#FFFFFF" d="M158.851-132.785c0.159-0.15,0.352-0.226,0.58-0.226c0.243,0,0.439,0.076,0.591,0.226
		c0.15,0.15,0.225,0.347,0.225,0.59v12.241c0,0.614,0.127,1.116,0.377,1.501c0.249,0.388,0.568,0.581,0.954,0.581h0.539
		c0.212,0,0.386,0.076,0.514,0.226c0.129,0.15,0.193,0.348,0.193,0.591s-0.089,0.44-0.269,0.591
		c-0.178,0.149-0.411,0.225-0.697,0.225h-0.28c-0.871,0-1.585-0.348-2.136-1.041s-0.826-1.585-0.826-2.672v-12.241
		C158.615-132.438,158.694-132.634,158.851-132.785z"/>
	<path fill="#FFFFFF" d="M175.304-116.927c0,0.215-0.101,0.409-0.3,0.58c-0.171,0.129-0.344,0.193-0.518,0.193
		c-0.229,0-0.421-0.1-0.578-0.3l-4.424-5.433l-1.61,1.46v3.371c0,0.243-0.075,0.44-0.227,0.591
		c-0.148,0.149-0.348,0.225-0.591,0.225s-0.438-0.076-0.591-0.225c-0.149-0.15-0.224-0.348-0.224-0.591v-15.139
		c0-0.244,0.074-0.44,0.224-0.59c0.152-0.15,0.348-0.226,0.591-0.226s0.442,0.076,0.591,0.226c0.151,0.15,0.227,0.347,0.227,0.59
		v9.771l6.054-5.475c0.159-0.144,0.33-0.215,0.518-0.215c0.215,0,0.393,0.086,0.536,0.257c0.158,0.187,0.235,0.359,0.235,0.516
		c0,0.201-0.093,0.38-0.278,0.537l-4.294,3.887l4.467,5.497C175.24-117.277,175.304-117.112,175.304-116.927z"/>
</g>
<g>
	<g>
		<path fill="#FFFFFF" d="M51.287-125.009c-1.621-0.147-3.537-0.442-5.673-1.105c-0.516,1.842-1.179,3.979-1.916,6.189
			c2.432,0.663,5.231,1.105,8.251,1.105C52.024-120.662,51.802-122.725,51.287-125.009z M42.593-134.366
			c-7.072,0-12.966,4.937-14.44,11.567l0,0c1.252,2.137,2.874,3.61,4.715,4.642c0-1.18,0.147-2.431,0.515-3.758
			c0.222-0.737,0.442-1.473,0.737-2.136c-0.811-0.663-1.621-1.399-2.432-2.21c0,0,0.885,0.811,2.579,1.916
			c1.105-2.21,2.8-3.905,4.421-5.157c-0.81-0.59-1.695-1.254-2.431-2.063c0,0,1.032,0.736,2.874,1.695
			c2.799-1.99,5.452-2.726,5.452-2.726s-2.358,0.884-4.862,3.02c1.399,0.737,3.241,1.622,5.304,2.358
			c0.737-1.842,1.547-3.683,2.358-5.23c0,0-0.589,2.284-1.547,5.525c1.694,0.588,3.463,1.105,5.378,1.474
			c-0.516-1.916-1.252-3.906-2.283-6.115c0,0,1.621,2.505,2.799,6.263c1.105,0.147,2.211,0.294,3.316,0.368
			c0,0-1.253,0.074-3.242-0.073c0.516,1.842,0.958,3.904,1.032,6.115c0.81,0,1.621-0.074,2.505-0.22c0,0-0.958,0.294-2.505,0.442
			c0,0.221,0,0.516,0,0.736c-0.073,2.58-0.958,4.715-1.989,6.336c1.695-0.074,2.653-0.221,2.653-0.221
			c-0.958,0.146-1.917,0.294-2.8,0.368c-1.768,2.579-4.053,3.831-4.42,4.052c0.442-0.073,0.737-0.073,0.884-0.147
			c-3.241,0.663-6.042,0.517-8.252,0c-0.221,0.368-0.442,0.736-0.589,0.959c0,0,0.074-0.369,0.294-1.032
			c-1.179-0.295-2.137-0.663-3.021-1.032c0.148,0.369,0.295,0.59,0.295,0.59s-0.147-0.221-0.442-0.663
			c-2.357-1.104-3.537-2.356-3.537-2.356c1.106,0.81,2.211,1.473,3.315,1.987c-0.294-0.515-0.663-1.178-1.031-2.062
			c-1.548-0.369-3.242-1.105-5.01-2.505c-0.074-0.074-0.074-0.074-0.147-0.148c2.284,5.231,7.441,8.841,13.556,8.841
			c8.178,0,14.735-6.63,14.735-14.735C57.328-127.735,50.697-134.366,42.593-134.366z M34.268-121.399
			c-0.368,1.251-0.589,2.504-0.589,3.684c2.505,1.178,5.23,1.546,7.441,1.62c0.368-1.105,0.737-2.284,1.179-3.536
			c-2.358-0.737-4.863-1.916-7.294-3.758C34.71-122.725,34.489-122.062,34.268-121.399z M35.152-123.683
			c1.841,1.105,4.272,2.432,7.367,3.39c0.664-1.99,1.474-4.126,2.21-6.115c-1.769-0.59-3.684-1.473-5.452-2.652
			C37.804-127.735,36.257-125.967,35.152-123.683z M51.95-118.526c-2.136,0.147-5.157,0.147-8.473-0.736
			c-0.369,1.105-0.663,2.136-1.031,3.168c2.063,0,3.462-0.294,3.462-0.294s-1.546,2.209-4.199,3.832
			c3.241,0.736,6.188,0.957,8.325,0.957C50.992-113.295,51.802-115.579,51.95-118.526z M34.636-110.937
			c0.295,0.884,0.516,1.547,0.736,2.063c1.105,0.441,2.21,0.81,3.242,1.031c0.221-0.885,0.589-2.137,1.031-3.685
			C38.247-110.937,36.552-110.642,34.636-110.937z M46.277-107.327c0.295-0.222,2.063-1.473,3.61-3.979
			c-3.463,0.223-6.41-0.072-8.915-0.736c-0.664,1.695-1.327,3.169-1.916,4.347C42.151-107.032,44.877-107.18,46.277-107.327z"/>
	</g>
</g>
<g>
	<path fill="#FFFFFF" d="M132.694-113.308c0.403,0.236,0.721,0.543,0.95,0.919c0.047,0.075,0.07,0.156,0.07,0.243
		c0,0.128-0.061,0.229-0.182,0.303c-0.054,0.027-0.115,0.04-0.182,0.04c-0.074,0-0.144-0.018-0.207-0.054
		c-0.064-0.037-0.116-0.09-0.157-0.157c-0.377-0.593-0.947-0.893-1.707-0.899c-0.547,0-0.978,0.115-1.294,0.343
		c-0.316,0.229-0.476,0.556-0.476,0.98c0,0.79,0.637,1.267,1.911,1.435c0.835,0.122,1.458,0.377,1.869,0.769
		c0.411,0.391,0.616,0.906,0.616,1.545c0,0.473-0.114,0.88-0.343,1.224c-0.23,0.344-0.543,0.604-0.941,0.783
		c-0.396,0.179-0.841,0.269-1.333,0.269c-0.64,0-1.208-0.137-1.703-0.41c-0.495-0.272-0.851-0.641-1.066-1.106
		c-0.027-0.048-0.04-0.101-0.04-0.162c0-0.095,0.035-0.173,0.106-0.238c0.07-0.063,0.167-0.095,0.288-0.095
		c0.08,0,0.157,0.021,0.227,0.065c0.071,0.043,0.123,0.105,0.157,0.187c0.154,0.303,0.412,0.547,0.772,0.733
		c0.36,0.185,0.78,0.278,1.259,0.278c0.553,0,0.996-0.133,1.333-0.4c0.339-0.266,0.506-0.638,0.506-1.116
		c0-0.424-0.156-0.782-0.47-1.071c-0.313-0.289-0.783-0.476-1.41-0.556c-0.781-0.095-1.396-0.339-1.844-0.733
		c-0.448-0.393-0.672-0.877-0.672-1.45c0-0.404,0.109-0.759,0.327-1.066c0.221-0.306,0.522-0.542,0.91-0.708
		c0.388-0.164,0.827-0.247,1.319-0.247C131.822-113.662,132.29-113.544,132.694-113.308z"/>
	<path fill="#FFFFFF" d="M135.756-110.994v-1.566c0-0.115,0.036-0.208,0.106-0.282c0.071-0.074,0.163-0.113,0.278-0.113
		c0.114,0,0.207,0.039,0.282,0.113c0.074,0.074,0.111,0.167,0.111,0.282v1.566h1.142c0.108,0,0.194,0.032,0.258,0.096
		c0.063,0.064,0.096,0.146,0.096,0.247c0,0.095-0.032,0.174-0.096,0.238c-0.063,0.064-0.149,0.097-0.258,0.097h-1.142v2.698
		c0,0.343,0.102,0.624,0.303,0.843c0.202,0.22,0.461,0.329,0.778,0.329h0.272c0.108,0,0.196,0.038,0.264,0.111
		s0.101,0.168,0.101,0.283c0,0.107-0.041,0.199-0.121,0.273c-0.081,0.074-0.182,0.111-0.303,0.111h-0.213
		c-0.357,0-0.678-0.086-0.96-0.257c-0.283-0.172-0.504-0.406-0.662-0.698c-0.158-0.294-0.237-0.625-0.237-0.996v-2.698V-110.994z"/>
	<path fill="#FFFFFF" d="M144.428-111.089c0.073,0.071,0.11,0.163,0.11,0.277v4.75c0,0.114-0.037,0.208-0.11,0.283
		c-0.074,0.074-0.17,0.111-0.284,0.111c-0.115,0-0.207-0.038-0.278-0.111c-0.069-0.074-0.105-0.168-0.105-0.283v-0.344
		c-0.223,0.249-0.491,0.445-0.809,0.586c-0.316,0.142-0.66,0.212-1.03,0.212c-0.479,0-0.908-0.101-1.288-0.304
		c-0.381-0.202-0.68-0.496-0.896-0.883c-0.215-0.388-0.322-0.85-0.322-1.39v-2.627c0-0.108,0.036-0.199,0.11-0.272
		c0.074-0.074,0.165-0.111,0.273-0.111c0.114,0,0.208,0.037,0.282,0.111c0.074,0.074,0.111,0.165,0.111,0.272v2.627
		c0,0.6,0.167,1.056,0.501,1.37c0.333,0.313,0.769,0.47,1.309,0.47c0.329,0,0.628-0.063,0.894-0.192
		c0.267-0.127,0.477-0.304,0.632-0.531c0.156-0.225,0.232-0.476,0.232-0.753v-2.991c0-0.114,0.036-0.206,0.105-0.277
		c0.071-0.071,0.163-0.106,0.278-0.106C144.258-111.196,144.354-111.161,144.428-111.089z"/>
	<path fill="#FFFFFF" d="M151.683-110.812v2.375c0,0.526-0.123,1.004-0.368,1.436c-0.247,0.431-0.583,0.77-1.012,1.016
		c-0.428,0.245-0.904,0.369-1.429,0.369c-0.525,0-1.003-0.124-1.431-0.369c-0.428-0.246-0.765-0.585-1.011-1.016
		c-0.245-0.432-0.368-0.91-0.368-1.436c0-0.525,0.119-1.001,0.358-1.429c0.24-0.428,0.565-0.765,0.98-1.01
		c0.413-0.247,0.878-0.37,1.389-0.37c0.438,0,0.839,0.094,1.202,0.278c0.365,0.185,0.665,0.439,0.9,0.764v-2.962
		c0-0.114,0.037-0.208,0.11-0.283c0.075-0.074,0.169-0.111,0.284-0.111c0.114,0,0.207,0.038,0.276,0.111
		c0.071,0.074,0.107,0.168,0.107,0.283v2.265C151.68-110.882,151.683-110.853,151.683-110.812z M149.914-106.603
		c0.311-0.186,0.555-0.438,0.732-0.757c0.179-0.32,0.269-0.68,0.269-1.078c0-0.114-0.004-0.197-0.011-0.251
		c-0.007-0.013-0.01-0.031-0.01-0.052c-0.067-0.524-0.288-0.957-0.662-1.292c-0.373-0.337-0.827-0.506-1.358-0.506
		c-0.384,0-0.733,0.091-1.047,0.273c-0.313,0.182-0.559,0.433-0.737,0.752c-0.178,0.321-0.268,0.679-0.268,1.076
		c0,0.398,0.09,0.757,0.268,1.078c0.179,0.319,0.425,0.572,0.737,0.757c0.313,0.185,0.663,0.278,1.047,0.278
		S149.604-106.418,149.914-106.603z"/>
	<path fill="#FFFFFF" d="M157.18-110.898c0.385,0.232,0.682,0.554,0.895,0.964c0.212,0.412,0.318,0.88,0.318,1.405
		c0,0.109-0.033,0.194-0.102,0.258c-0.068,0.064-0.155,0.097-0.263,0.097h-4.082c0.054,0.551,0.269,1,0.646,1.343
		c0.378,0.343,0.849,0.516,1.415,0.516c0.242,0,0.486-0.043,0.731-0.126c0.246-0.084,0.444-0.19,0.592-0.318
		c0.088-0.067,0.179-0.101,0.273-0.101c0.074,0,0.147,0.027,0.222,0.08c0.088,0.082,0.132,0.171,0.132,0.272
		c0,0.088-0.037,0.166-0.111,0.233c-0.223,0.188-0.505,0.345-0.849,0.47s-0.674,0.187-0.99,0.187c-0.539,0-1.021-0.12-1.445-0.359
		c-0.425-0.24-0.757-0.572-0.995-1c-0.24-0.429-0.358-0.912-0.358-1.451c0-0.545,0.112-1.032,0.338-1.459
		c0.227-0.428,0.538-0.762,0.939-1.002c0.4-0.238,0.857-0.358,1.369-0.358C156.354-111.247,156.796-111.13,157.18-110.898z
		 M154.583-110.075c-0.337,0.317-0.543,0.735-0.617,1.253h3.699c-0.054-0.519-0.242-0.936-0.566-1.253
		c-0.323-0.315-0.738-0.475-1.243-0.475C155.344-110.549,154.919-110.39,154.583-110.075z"/>
	<path fill="#FFFFFF" d="M163.612-110.954c0.381,0.202,0.679,0.498,0.895,0.885c0.216,0.387,0.323,0.851,0.323,1.389v2.627
		c0,0.107-0.037,0.199-0.111,0.273c-0.074,0.074-0.165,0.111-0.272,0.111c-0.114,0-0.209-0.038-0.284-0.111
		c-0.073-0.074-0.11-0.166-0.11-0.273v-2.627c0-0.599-0.167-1.056-0.501-1.37c-0.333-0.313-0.77-0.469-1.309-0.469
		c-0.329,0-0.628,0.063-0.894,0.191c-0.267,0.129-0.478,0.305-0.632,0.531c-0.155,0.227-0.232,0.477-0.232,0.753v2.991
		c0,0.114-0.035,0.208-0.106,0.278c-0.07,0.071-0.164,0.107-0.278,0.107s-0.208-0.036-0.282-0.107
		c-0.074-0.07-0.111-0.164-0.111-0.278v-4.749c0-0.115,0.037-0.21,0.111-0.284c0.074-0.074,0.168-0.111,0.282-0.111
		s0.208,0.037,0.278,0.111c0.071,0.074,0.106,0.168,0.106,0.284v0.343c0.223-0.25,0.492-0.444,0.809-0.587
		c0.316-0.141,0.66-0.211,1.031-0.211C162.802-111.256,163.231-111.155,163.612-110.954z"/>
	<path fill="#FFFFFF" d="M166.851-110.994v-1.566c0-0.115,0.036-0.208,0.107-0.282c0.069-0.074,0.162-0.113,0.277-0.113
		c0.114,0,0.208,0.039,0.283,0.113c0.073,0.074,0.111,0.167,0.111,0.282v1.566h1.141c0.108,0,0.194,0.032,0.259,0.096
		c0.063,0.064,0.096,0.146,0.096,0.247c0,0.095-0.032,0.174-0.096,0.238c-0.064,0.064-0.15,0.097-0.259,0.097h-1.141v2.698
		c0,0.343,0.101,0.624,0.302,0.843c0.202,0.22,0.462,0.329,0.779,0.329h0.272c0.107,0,0.195,0.038,0.263,0.111
		s0.102,0.168,0.102,0.283c0,0.107-0.041,0.199-0.122,0.273c-0.08,0.074-0.182,0.111-0.302,0.111h-0.213
		c-0.357,0-0.678-0.086-0.961-0.257c-0.283-0.172-0.503-0.406-0.662-0.698c-0.157-0.294-0.237-0.625-0.237-0.996v-2.698V-110.994z"
		/>
	<path fill="#FFFFFF" d="M173.684-111.018c0.329,0.15,0.595,0.361,0.797,0.631c0.055,0.088,0.081,0.165,0.081,0.232
		c0,0.114-0.054,0.206-0.161,0.273c-0.048,0.034-0.111,0.05-0.193,0.05c-0.141,0-0.259-0.05-0.354-0.151
		c-0.329-0.378-0.78-0.566-1.354-0.566c-0.371,0-0.666,0.076-0.89,0.228c-0.222,0.152-0.333,0.342-0.333,0.571
		c0,0.243,0.104,0.436,0.313,0.581c0.209,0.144,0.579,0.261,1.111,0.348c0.721,0.122,1.236,0.318,1.547,0.592
		c0.31,0.273,0.465,0.611,0.465,1.016c0,0.31-0.094,0.586-0.278,0.828c-0.185,0.243-0.443,0.432-0.772,0.566
		c-0.331,0.135-0.704,0.202-1.123,0.202c-0.417,0-0.817-0.071-1.201-0.212c-0.384-0.141-0.695-0.34-0.931-0.596
		c-0.067-0.082-0.102-0.158-0.102-0.232c0-0.115,0.055-0.215,0.162-0.304c0.08-0.061,0.166-0.092,0.253-0.092
		c0.114,0,0.212,0.048,0.294,0.143c0.161,0.188,0.374,0.333,0.641,0.435c0.267,0.101,0.562,0.151,0.884,0.151
		c0.472,0,0.826-0.081,1.062-0.243c0.236-0.161,0.356-0.373,0.364-0.637c0-0.242-0.119-0.444-0.354-0.605
		c-0.235-0.162-0.609-0.283-1.121-0.363c-0.66-0.108-1.154-0.296-1.481-0.562c-0.325-0.266-0.489-0.588-0.489-0.965
		c0-0.491,0.19-0.873,0.571-1.142c0.38-0.27,0.857-0.404,1.429-0.404C172.965-111.247,173.353-111.171,173.684-111.018z"/>
</g>
<path fill="#FFFFFF" d="M242.545-109.014h2.33v-19.436h10.055v16.82c0.007,0.262-0.199,0.479-0.461,0.485l0,0H252.7l0.36,1.986h1.62
	c0.866,0.038,1.69-0.38,2.174-1.103c0.295-0.499,0.442-1.07,0.423-1.649v-18.907h-14.732V-109.014z M253.971-126.343h-8.098v1.906
	h8.098V-126.343z M253.479-112.751v-9.924h-7.133v9.924h1.981v-0.66h3.164v0.66H253.479z M248.327-115.306v-5.474h3.164v5.474
	H248.327z M291.538-109.014h2.249v-0.624h14.364v0.624h2.219v-7.613h-18.832V-109.014z M293.787-115.174h14.364v1.307h-14.364
	V-115.174z M293.787-112.403h14.364v1.309h-14.364V-112.403z M241.462-124.276v-2.329h-1.808v-5.302h-2.104v5.302h-2.691v2.348
	h2.573c-0.25,1.924-2.317,7.475-3.065,9.193l1.478,1.339c0.728-1.695,1.299-3.455,1.706-5.257v9.967h2.081v-10.777
	c0.302,1.326,0.669,2.636,1.102,3.924l1.321-1.539c-0.623-1.339-2.205-5.531-2.386-6.851L241.462-124.276z M330.217-129.483v-2.423
	h-2.33v2.442h-9.762v11.493c0.096,2.313-0.669,4.579-2.148,6.361l-0.138,0.174l1.926,1.333c2.803-3.639,2.678-5.701,2.71-7.231
	v-9.787h18.27v-2.342L330.217-129.483z M281.492-114.913h-2.212c0.503,2.167,1.745,4.091,3.514,5.444l1.824-1.202
	C283.092-111.654,281.979-113.164,281.492-114.913z M310.427-130.486h-8.504v-1.42h-2.235v1.42h-8.161v1.539h8.161v1.245h-10.354
	v1.558h10.354v1.245h-8.161v1.558h8.161v1.246h-8.161v1.558h8.161v1.245h-10.354v1.558h22.905v-1.558h-10.316v-1.245h8.273v-1.558
	h-8.273v-1.246h8.504v-2.816h1.813v-1.544h-1.819L310.427-130.486z M308.184-124.941h-6.229v-1.247h6.229V-124.941z
	 M308.184-127.715h-6.229v-1.232h6.229V-127.715z M330.19-125.934h-2.328v6.853h-5.986v10.066h2.329v-1.19h10.783v1.19h2.329
	v-10.073h-7.127v-2.59h8.043v-2.342h-8.043V-125.934z M334.988-116.739v4.486h-10.783v-4.486H334.988z M266.043-110.677l1.824,1.202
	c1.769-1.352,3.011-3.276,3.514-5.444h-2.212C268.683-113.17,267.569-111.661,266.043-110.677z M283.547-126.333h-6.691v-2.117
	h7.744v-2.368h-20.595v12.846c0.113,2.372-0.659,4.701-2.167,6.535l-0.138,0.168l1.95,1.321v-0.033
	c2.797-3.63,2.642-5.817,2.673-7.355v-11.114h8.19v2.117h-6.502v10.124h6.516v4.703c0,0.081-0.063,0.523-0.461,0.523h-2.1
	l0.404,1.969h1.919c0.865,0.026,1.684-0.392,2.168-1.109c0.294-0.499,0.441-1.071,0.424-1.649v-4.437h6.677L283.547-126.333z
	 M281.278-118.152h-11v-2.13h11V-118.152z M281.278-122.245h-11v-2.13h11V-122.245z M200.735-133.37v26.038h26.037v-26.038H200.735z
	 M224.699-109.406h-21.896v-21.891h21.896V-109.406z"/>
<path fill="#FFFFFF" d="M206.354-128.637h2.934v16.476h-2.934V-128.637z M221.447-112.066l-5.855-8.304h-3.352l5.85,8.304H221.447z"
	/>
<path fill="#FFFFFF" d="M218.078-128.543l-5.838,8.172h3.352l5.836-8.172H218.078z"/>
<text transform="matrix(1 0 0 1 181 -113.4)" fill="#FFFFFF" font-family="'NotoSansJP-Bold-90ms-RKSJ-H'" font-size="12">×</text>
</svg>
