<?xml version="1.0" encoding="UTF-8" standalone="no"?> <!-- Created with Vectornator for iOS (http://vectornator.io/) --><!DOCTYPE svg PUBLIC "-//W3C//DTD SVG 1.1//EN" "http://www.w3.org/Graphics/SVG/1.1/DTD/svg11.dtd">
<svg height="100%" style="fill-rule:nonzero;clip-rule:evenodd;stroke-linecap:round;stroke-linejoin:round;" xmlns:xlink="http://www.w3.org/1999/xlink" xmlns="http://www.w3.org/2000/svg" xml:space="preserve" width="100%" xmlns:vectornator="http://vectornator.io" version="1.1" viewBox="0 0 201.25 24.75">
<metadata>
<vectornator:setting key="DimensionsVisible" value="0"/>
<vectornator:setting key="PencilOnly" value="0"/>
<vectornator:setting key="SnapToPoints" value="0"/>
<vectornator:setting key="OutlineMode" value="0"/>
<vectornator:setting key="CMYKEnabledKey" value="0"/>
<vectornator:setting key="RulersVisible" value="1"/>
<vectornator:setting key="SnapToEdges" value="0"/>
<vectornator:setting key="GuidesVisible" value="1"/>
<vectornator:setting key="DisplayWhiteBackground" value="0"/>
<vectornator:setting key="doHistoryDisabled" value="0"/>
<vectornator:setting key="SnapToGuides" value="1"/>
<vectornator:setting key="TimeLapseWatermarkDisabled" value="0"/>
<vectornator:setting key="Units" value="Points"/>
<vectornator:setting key="DynamicGuides" value="1"/>
<vectornator:setting key="IsolateActiveLayer" value="0"/>
<vectornator:setting key="SnapToGrid" value="0"/>
</metadata>
<defs>
<linearGradient y1="12.3412" id="LinearGradient" x1="6.5" y2="12.3412" x2="76.5" gradientUnits="userSpaceOnUse" gradientTransform="matrix(1 0 0 1 0 0)">
<stop stop-opacity="0" stop-color="#fff" offset="0"/>
<stop stop-color="#fff" offset="0.502866"/>
</linearGradient>
<linearGradient y1="12.3412" id="LinearGradient_2" x1="122.75" y2="12.3412" x2="192.75" gradientUnits="userSpaceOnUse" gradientTransform="matrix(1 0 0 1 0 0)">
<stop stop-color="#fff" offset="0.502805"/>
<stop stop-opacity="0" stop-color="#fff" offset="1"/>
</linearGradient>
</defs>
<g id="Untitled" vectornator:layerName="Untitled">
<path d="M98.6069+17.2213C98.7909+17.084+99.8894+16.3068+100.851+14.7479C98.6993+14.887+96.8667+14.703+95.3096+14.2902C94.8976+15.3438+94.4848+16.2601+94.1195+16.9925C96.0419+17.4044+97.7372+17.3129+98.6069+17.2213M91.3715+14.9776C91.5545+15.5278+91.6919+15.9388+91.8292+16.2601C92.5166+16.5357+93.2032+16.7645+93.8449+16.9009C93.9813+16.3517+94.2102+15.5727+94.4848+14.6106C93.6151+14.9776+92.5615+15.1598+91.3715+14.9776M102.134+10.2596C100.806+10.3521+98.9282+10.3521+96.8667+9.8028C96.6378+10.4894+96.4547+11.1302+96.2259+11.7719C97.5084+11.7719+98.378+11.5888+98.378+11.5888C98.378+11.5888+97.4168+12.961+95.7682+13.9698C97.7821+14.4284+99.6147+14.5648+100.944+14.5648C101.538+13.5121+102.041+12.0914+102.134+10.2596M91.6919+7.0539C92.837+7.7413+94.3484+8.5652+96.2716+9.1621C96.6845+7.9244+97.1871+6.59617+97.6448+5.35947C96.5454+4.99328+95.3553+4.44403+94.2568+3.71081C93.3405+4.53559+92.3784+5.63409+91.6919+7.0539M91.1417+8.4746C90.9137+9.2518+90.7755+10.0317+90.7755+10.764C92.3326+11.4964+94.0271+11.7252+95.4011+11.7719C95.63+11.0844+95.8597+10.3521+96.1343+9.5731C94.6688+9.1154+93.1108+8.3821+91.6003+7.2379C91.4172+7.6507+91.279+8.0617+91.1417+8.4746M96.3174+0.4135C91.9216+0.4135+88.2572+3.48195+87.3409+7.6031C88.1199+8.9323+89.1269+9.8477+90.2721+10.4894C90.2721+9.7562+90.3636+8.9781+90.5925+8.1533C90.7298+7.6956+90.8671+7.2379+91.0502+6.82503C90.5467+6.41308+90.0432+5.95539+89.5388+5.45191C89.5388+5.45191+90.089+5.95539+91.1417+6.64194C91.8292+5.26881+92.8819+4.2143+93.8898+3.43619C93.3863+3.07+92.837+2.65717+92.3784+2.15369C92.3784+2.15369+93.0201+2.6114+94.1653+3.20733C95.9055+1.97062+97.5541+1.5129+97.5541+1.5129C97.5541+1.5129+96.0886+2.06306+94.5315+3.39042C95.4011+3.84811+96.5454+4.39827+97.8287+4.85598C98.2874+3.71081+98.7909+2.56654+99.2943+1.60443C99.2943+1.60443+98.9282+3.02423+98.3322+5.03995C99.3859+5.40524+100.485+5.72653+101.675+5.95539C101.356+4.76355+100.898+3.52772+100.256+2.15369C100.256+2.15369+101.263+3.71081+101.997+6.04692C102.683+6.13846+103.37+6.23089+104.057+6.27578C104.057+6.27578+103.278+6.32155+102.041+6.23089C102.364+7.3752+102.637+8.6577+102.683+10.0317C103.187+10.0317+103.691+9.985+104.241+9.8944C104.241+9.8944+103.644+10.0766+102.683+10.169L102.683+10.6267C102.637+12.2305+102.087+13.5578+101.447+14.5648C102.5+14.519+103.095+14.4284+103.095+14.4284C102.5+14.519+101.904+14.6106+101.356+14.6572C100.256+16.2601+98.8357+17.0373+98.6069+17.1755C98.8824+17.1298+99.0646+17.1298+99.157+17.084C97.1413+17.4959+95.4011+17.4044+94.0271+17.084C93.8898+17.3129+93.7524+17.5417+93.6609+17.6799C93.6609+17.6799+93.7067+17.4502+93.8449+17.0373C93.1108+16.8552+92.5166+16.6254+91.9665+16.3957C92.058+16.6254+92.1496+16.7645+92.1496+16.7645C92.1496+16.7645+92.058+16.6254+91.875+16.3517C90.4094+15.6642+89.6761+14.887+89.6761+14.887C90.3636+15.3887+91.0502+15.8015+91.7376+16.1219C91.5545+15.8015+91.3248+15.3887+91.0968+14.8403C90.1347+14.6106+89.0811+14.152+87.9826+13.2832C87.9359+13.2374+87.9359+13.2374+87.8902+13.1899C89.31+16.4432+92.5166+18.686+96.3174+18.686C101.402+18.686+105.477+14.5648+105.477+9.5273C105.477+4.53559+101.356+0.4135+96.3174+0.4135M101.722+6.23089C100.714+6.13846+99.5232+5.95539+98.1949+5.54253C97.8745+6.68771+97.4617+8.016+97.0049+9.3909C98.5162+9.8028+100.256+10.0766+102.134+10.0766C102.18+8.9323+102.041+7.6507+101.722+6.23089" fill-rule="evenodd" fill="#fff" opacity="1"/>
<path d="M6.5+12.9324L76.5+12.9324L76.5+11.75L6.5+11.75L6.5+12.9324Z" fill-rule="evenodd" fill="url(#LinearGradient)" opacity="1"/>
<path d="M122.75+12.9324L192.75+12.9324L192.75+11.75L122.75+11.75L122.75+12.9324Z" fill-rule="evenodd" fill="url(#LinearGradient_2)" opacity="1"/>
</g>
<g id="レイヤー 1" vectornator:layerName="レイヤー 1">
<path d="M96.75+7.02332L114.055+7.02332L114.055+24.686L96.75+24.686L96.75+7.02332Z" opacity="1" fill="#ffffff"/>
<path d="M96.75+6.686L96.75+24.686L114.75+24.686L114.75+6.686L96.75+6.686ZM113.316+23.252L98.18+23.252L98.18+8.11998L113.316+8.11998L113.316+23.252Z" fill-rule="evenodd" fill="#231815" opacity="1"/>
<path d="M100.634+9.95873L102.662+9.95873L102.662+21.3487L100.634+21.3487L100.634+9.95873ZM111.068+21.4133L107.02+15.6731L104.704+15.6731L108.747+21.4133L111.068+21.4133Z" fill-rule="evenodd" fill="#231815" opacity="1"/>
<path d="M107.739+10.0233L103.704+15.6731L106.02+15.6731L110.055+10.0233L107.739+10.0233Z" fill-rule="evenodd" fill="#00ada9" opacity="1"/>
</g>
</svg>
