<?xml version="1.0" encoding="utf-8"?>
<!-- Generator: Adobe Illustrator 13.0.0, SVG Export Plug-In . SVG Version: 6.00 Build 14948)  -->
<!DOCTYPE svg PUBLIC "-//W3C//DTD SVG 1.1//EN" "http://www.w3.org/Graphics/SVG/1.1/DTD/svg11.dtd">
<svg version="1.1" id="レイヤー_1" xmlns="http://www.w3.org/2000/svg" xmlns:xlink="http://www.w3.org/1999/xlink" x="0px"
	 y="0px" width="400px" height="400px" viewBox="0 0 400 400" enable-background="new 0 0 400 400" xml:space="preserve">
<g>
	<path fill="#333333" d="M174,67.6C80.2,67.6,4.1,135.8,4.1,220c0,31,10.4,59.8,28.1,83.9c-2.3,27.8-9.1,66.9-28.1,86
		c0,0,58.2-8.2,97.7-32c21.9,9.3,46.4,14.4,72.2,14.4c93.8,0,169.9-68.2,169.9-152.3C343.9,135.8,267.9,67.6,174,67.6L174,67.6z
		 M174,67.6"/>
	<path fill="#CCCCCC" d="M398.3,161.6c0-84.1-76.1-152.3-169.9-152.3c-67.7,0-126.2,35.6-153.5,87c27.9-18,62.1-28.7,99.2-28.7
		c93.8,0,169.9,68.2,169.9,152.4c0,32.2-11.2,62-30.2,86.6c38.1,18.4,84.5,24.9,84.5,24.9c-19-19-25.8-58.2-28.1-86
		C387.9,221.4,398.3,192.6,398.3,161.6L398.3,161.6z M398.3,161.6"/>
	<g>
		<path fill="#FFFFFF" d="M76.4,226.8c-3.3,4.4-5.7,7.5-7.3,9.2c-1.9,2.1-3.6,3.7-5,4.8c-1.6,1.2-3.1,1.8-4.5,1.8
			c-1.3,0-2.4-0.7-3.1-2c-0.6-1-0.9-2.2-0.9-3.4c0-4.2,2.5-9.9,7.4-17.2c4.5-6.6,7.8-9.9,10-9.9c0.5,0,1,0.2,1.5,0.7
			c0.5,0.5,0.7,1,0.7,1.6c0,0.8-0.7,2-2.2,3.5c-3.2,3.1-5.9,6.7-8.2,10.6c-2,3.4-3,5.5-3,6.6c0,0.8,0.3,1.1,1,1.1
			c2.3,0,7.2-5,14.9-14.9c2.5-3.2,4-5.1,4.5-5.5c1-0.9,2-1.4,3-1.4c0.7,0,1.3,0.2,1.8,0.6c0.4,0.4,0.6,0.8,0.6,1.2
			c0,0.5-0.9,2.4-2.7,5.8c-4.2,7.3-6.2,12.3-6.2,14.8c0,1,0.4,1.5,1.2,1.5c1.4,0,3.3-1.6,5.7-4.7c2.3-3,4.4-6.8,6.3-11.3
			c0.8-2,1.6-4.6,2.2-7.8c0.8-3.7,2.3-5.5,4.6-5.5c1.3,0,1.9,0.7,1.9,2.2c0,5-2.8,11.9-8.4,20.6c-5.8,9.1-10.7,13.7-14.6,13.7
			c-2.9,0-4.4-1.8-4.4-5.4C73.3,234.8,74.3,231.1,76.4,226.8z"/>
		<path fill="#FFFFFF" d="M119,205.9c-2.5,3.9-4.8,8.2-6.9,12.9c-3,6.8-4.5,11.9-4.5,15.2c0,1,0.2,1.7,0.6,2.2
			c0.4,0.5,1,0.7,1.8,0.7c1.9,0,4.2-1.8,6.9-5.4c1.7-2.2,3.2-4.4,4.6-6.6c0.7-1.3,1.5-1.9,2.3-1.9c0.5,0,0.9,0.2,1.3,0.5
			c0.3,0.3,0.5,0.7,0.5,1c0,1.4-1.9,4.6-5.5,9.4c-4.4,5.9-8.5,8.8-12.1,8.8c-1.9,0-3.6-0.9-4.9-2.7c-0.8-1.1-1.2-2.8-1.2-4.9
			c0-4.6,1.3-10,4-16.1c0.6-1.5,2.4-5.2,5.4-11c-1,0.3-1.8,0.4-2.3,0.4c-0.8,0-1.5-0.2-2.1-0.6c-0.8-0.5-1.3-1.2-1.3-2
			c0-1,0.6-1.7,1.7-2.3c0.3-0.2,1.7-0.4,4.2-0.7c0.9-0.2,2.2-0.5,4-1.1c1.3-2.4,3.5-5.7,6.5-9.8c1.7-2.3,2.8-3.8,3.5-4.5
			c0.9-1,1.7-1.4,2.4-1.4c0.5,0,1,0.3,1.5,0.8c0.5,0.5,0.7,1,0.7,1.5c0,1-1.1,3-3.2,5.9c-1.4,1.9-2.5,3.5-3.1,4.6
			c4.2-1.1,7.3-1.7,9.1-1.7c2.1,0,3.1,0.9,3.1,2.6c0,0.9-0.4,1.5-1.1,1.9c-0.4,0.2-1.4,0.4-3,0.6c-0.6,0-3.5,0.7-8.6,2.2
			C121.8,205,120.4,205.4,119,205.9z"/>
		<path fill="#FFFFFF" d="M130.7,231.7v1c0,0.8,0.2,1.6,0.6,2.2c1,1.4,2.5,2.1,4.7,2.1c4.8,0,10.3-3.7,16.5-11
			c1.1-1.3,2-1.9,2.8-1.9c0.4,0,0.8,0.2,1.1,0.6c0.2,0.3,0.3,0.6,0.3,0.9c0,1.5-1.8,4-5.5,7.5c-2.9,2.8-5.9,5.1-9.2,6.8
			c-3.2,1.8-6.3,2.6-9,2.6c-2.9,0-5.1-1-6.7-3c-1.1-1.4-1.7-3.2-1.7-5.6c0-6.4,3-12.8,9.1-18.9c4.9-5,9.2-7.5,12.9-7.5
			c1,0,1.9,0.3,2.7,0.9c1,0.8,1.5,1.8,1.5,3.1c0,2-0.9,4.5-2.8,7.4C144.2,225.2,138.4,229.4,130.7,231.7z M131.9,227.3
			c2.7-0.9,4.8-1.9,6.3-3.1c2.7-2.1,4.8-4.4,6.3-7c0.6-0.9,0.9-1.7,0.9-2.5c0-0.8-0.4-1.1-1.1-1.1c-1,0-2.4,0.7-4.2,2.2
			C136.8,218.5,134.1,222.3,131.9,227.3z"/>
		<path fill="#FFFFFF" d="M194.8,207.2c3,0,4.5,1.6,4.5,4.7c0,2.8-1.1,5.6-3.3,8.4c-1.7,2.1-3.1,3.2-4.4,3.2c-1.1,0-1.6-0.6-1.6-1.8
			c0-0.6,0.2-1.2,0.5-1.5c0.1-0.2,0.6-0.6,1.4-1.3c0.7-0.6,1.4-1.6,2.1-2.9c0.5-0.9,0.7-1.6,0.7-2.1c0-0.6-0.3-0.9-1-0.9
			c-0.8,0-2,0.6-3.7,1.9c-2.6,2-5.2,5.2-7.8,9.5c-2.7,4.5-4,8-4,10.6c0,0.8,0.2,1.6,0.7,2.2c0.7,1,1.7,1.5,2.9,1.5
			c2.4,0,5.2-1.5,8.5-4.5c2.8-2.6,5.1-5.1,7-7.7c1-1.4,1.8-2.1,2.6-2.1c0.4,0,0.8,0.2,1.1,0.6c0.3,0.4,0.5,0.8,0.5,1.1
			c0,1.4-1.8,4.2-5.4,8.2c-5.8,6.4-11,9.6-15.7,9.6c-2.8,0-5-1-6.5-3c-1.1-1.5-1.6-3.2-1.6-5.3c0-4,1.6-8.6,4.9-13.8
			c3.2-5,6.8-9,11-12.1C190.9,208.1,193,207.2,194.8,207.2z"/>
		<path fill="#FFFFFF" d="M216.9,219.3c2.8-2.9,5.6-5.4,8.5-7.4c3.6-2.5,6.2-3.8,7.8-3.8c0.6,0,1.3,0.3,1.9,0.8c0.7,0.6,1,1.3,1,2.1
			c0,1-0.8,2.6-2.5,4.8c-3.2,4.2-5.6,8-7.2,11.4c-1.4,3-2.2,5-2.2,6.1c0,1,0.5,1.5,1.5,1.5c2.1,0,5.5-3.7,10.4-11
			c1-1.5,1.9-2.2,2.7-2.2s1.2,0.5,1.2,1.4c0,1.5-1.5,4.3-4.3,8.5c-2.5,3.7-5.1,6.5-7.9,8.4c-1.9,1.3-3.7,2-5.3,2
			c-1.6,0-2.8-0.7-3.5-2.1c-0.5-0.9-0.7-1.8-0.7-2.9c0-3.4,1.2-7.3,3.6-11.6c0.6-1,2.3-4,5.1-8.8c-7.8,3.9-14.4,12.4-19.7,25.5
			c-0.5,1.5-1.3,2.2-2.3,2.2c-0.7,0-1.3-0.2-1.8-0.7c-0.5-0.5-0.7-1.2-0.7-1.9c0-1.3,1.2-4.8,3.7-10.7c4.5-10.9,8.8-20.1,12.7-27.7
			c3.9-7.6,8.3-15.5,13.1-23.7c1.1-2,2-3.3,2.7-4c0.6-0.7,1.3-1,2.1-1c0.7,0,1.3,0.4,1.8,1.1c0.4,0.5,0.6,1.1,0.6,1.8
			c0,1.1-0.6,2.5-1.8,4.3c-4.1,6.4-8.2,13.4-12.3,21C220.6,210.8,217.9,216.3,216.9,219.3z"/>
		<path fill="#FFFFFF" d="M256.4,233.3c-1.3,2.2-2.5,4.1-3.7,5.6c-2.4,3-4.8,4.5-7.2,4.5c-2.1,0-3.7-1-4.8-2.9
			c-0.7-1.3-1.1-2.7-1.1-4.5c0-4.2,1.3-8.9,4-14c3-5.7,6.6-10,10.8-13.1c2.7-2,5.4-3,7.9-3c1.6,0,2.9,0.5,4,1.5
			c0.9,0.9,1.4,1.9,1.4,3c0,0.8-0.3,2-1,3.5c0.6,0.8,0.9,1.5,0.9,2.1c0,0.8-0.5,2.1-1.6,3.9c-1.1,1.9-2.2,4.3-3.3,7.4
			c-1.2,3.3-1.8,5.9-1.8,7.9c0,1.6,0.5,2.9,1.4,3.9c0.3,0.3,1,0.7,2.3,1.3c1,0.5,1.4,1.3,1.4,2.4c0,0.7-0.3,1.3-0.8,1.8
			c-0.6,0.5-1.2,0.7-2,0.7c-2.1,0-3.8-0.9-5.3-2.7c-1.2-1.5-1.8-3.4-1.8-5.6C256.1,236.3,256.2,235,256.4,233.3z M263.5,214.5
			c-0.5-0.8-1-1.5-1.5-1.9c-0.5-0.4-1.1-0.6-1.7-0.6c-2.9,0-6,2.5-9.4,7.6c-3.7,5.6-5.6,10.4-5.6,14.2c0,1,0.2,1.7,0.5,2.2
			c0.4,0.5,0.9,0.7,1.6,0.7c1.8,0,4-1.9,6.4-5.8c1.4-2.1,3.1-5.3,5.1-9.4c1.3-2.7,2.3-4.5,2.9-5.4
			C262.2,215.7,262.7,215.1,263.5,214.5z"/>
		<path fill="#FFFFFF" d="M288.9,205.9c-2.5,3.9-4.8,8.2-6.9,12.9c-3,6.8-4.5,11.9-4.5,15.2c0,1,0.2,1.7,0.6,2.2s1,0.7,1.8,0.7
			c1.9,0,4.2-1.8,6.9-5.4c1.7-2.2,3.2-4.4,4.6-6.6c0.7-1.3,1.5-1.9,2.3-1.9c0.5,0,0.9,0.2,1.3,0.5c0.3,0.3,0.5,0.7,0.5,1
			c0,1.4-1.9,4.6-5.5,9.4c-4.4,5.9-8.5,8.8-12.1,8.8c-1.9,0-3.6-0.9-4.9-2.7c-0.8-1.1-1.2-2.8-1.2-4.9c0-4.6,1.3-10,4-16.1
			c0.6-1.5,2.4-5.2,5.4-11c-1,0.3-1.8,0.4-2.3,0.4c-0.8,0-1.5-0.2-2.1-0.6c-0.8-0.5-1.3-1.2-1.3-2c0-1,0.6-1.7,1.7-2.3
			c0.3-0.2,1.7-0.4,4.2-0.7c0.9-0.2,2.3-0.5,4-1.1c1.3-2.4,3.5-5.7,6.5-9.8c1.7-2.3,2.8-3.8,3.5-4.5c0.9-1,1.7-1.4,2.4-1.4
			c0.5,0,1,0.3,1.5,0.8c0.5,0.5,0.7,1,0.7,1.5c0,1-1.1,3-3.2,5.9c-1.4,1.9-2.5,3.5-3.1,4.6c4.2-1.1,7.3-1.7,9.1-1.7
			c2.1,0,3.1,0.9,3.1,2.6c0,0.9-0.4,1.5-1.1,1.9c-0.4,0.2-1.4,0.4-3,0.6c-0.6,0-3.5,0.7-8.6,2.2C291.6,205,290.2,205.4,288.9,205.9z
			"/>
	</g>
</g>
</svg>
